<svg xmlns="http://www.w3.org/2000/svg" width="960" height="414"><style>.t{dominant-baseline:central;font-variant-ligatures:none;white-space:pre;font-family:Consolas,Courier New,Monaco;font-size:16px}.b{font-weight:700}:root{color-scheme:light dark;background:#fff}.c2{fill:#0dbc79}.c1{fill:#cd3131}.c7{fill:#e5e5e5}.b0{fill:#000}.b1{fill:#cd3131}.b2{fill:#0dbc79}.b3{fill:#e5e510}.b4{fill:#2472c8}.b5{fill:#bc3fbc}.b6{fill:#11a8cd}.b7{fill:#e5e5e5}.ba{fill:#666}.bb{fill:#f14c4c}.bc{fill:#23d18b}.bd{fill:#f5f543}.be{fill:#3b8eea}.bf{fill:#d670d6}.bg{fill:#29b8db}.bh{fill:#e5e5e5}svg&gt;text{fill:#000}@media (prefers-color-scheme:dark){:root{background:#181818}.c2{fill:#0dbc79}.c1{fill:#cd3131}.c7{fill:#000}.b0{fill:#e5e5e5}.b1{fill:#cd3131}.b2{fill:#0dbc79}.b3{fill:#e5e510}.b4{fill:#2472c8}.b5{fill:#bc3fbc}.b6{fill:#11a8cd}.b7{fill:#000}.ba{fill:#e5e5e5}.bb{fill:#f14c4c}.bc{fill:#23d18b}.bd{fill:#f5f543}.be{fill:#3b8eea}.bf{fill:#d670d6}.bg{fill:#29b8db}.bh{fill:#666}svg&gt;text{fill:#e5e5e5}}</style><text y="10" class="t c2"><tspan textLength="350">         -o          o-            </tspan></text><text x="350" y="10" class="t c1 b"><tspan textLength="70">u0_a387</tspan></text><text x="420" y="10" class="t"><tspan textLength="10">@</tspan></text><text x="430" y="10" class="t c1 b"><tspan textLength="90">localhost</tspan></text><text y="28" class="t c2"><tspan textLength="350">          +hydNNNNdyh+             </tspan></text><text x="350" y="28" class="t"><tspan textLength="70">-------</tspan></text><text y="46" class="t c2"><tspan textLength="350">        +mMMMMMMMMMMMMm+           </tspan></text><text x="350" y="46" class="t c2 b"><tspan textLength="40">OS: </tspan></text><text x="390" y="46" class="t"><tspan textLength="180">Android 16 aarch64</tspan></text><text y="64" class="t c2"><tspan textLength="100">      `dMM</tspan></text><text x="100" y="64" class="t c7"><tspan textLength="20">m:</tspan></text><text x="120" y="64" class="t c2"><tspan textLength="80">NMMMMMMN</tspan></text><text x="200" y="64" class="t c7"><tspan textLength="20">:m</tspan></text><text x="220" y="64" class="t c2"><tspan textLength="130">MMd`         </tspan></text><text x="350" y="64" class="t c2 b"><tspan textLength="50">Rom: </tspan></text><text x="400" y="64" class="t"><tspan textLength="180">BP2A.250605.031.A3</tspan></text><text y="82" class="t c2"><tspan textLength="350">      hMMMMMMMMMMMMMMMMMMh         </tspan></text><text x="350" y="82" class="t c2 b"><tspan textLength="100">Baseband: </tspan></text><text x="450" y="82" class="t"><tspan textLength="30">msm</tspan></text><text y="100" class="t c2"><tspan textLength="350">  ..  yyyyyyyyyyyyyyyyyyyy  ..     </tspan></text><text x="350" y="100" class="t c2 b"><tspan textLength="80">Kernel: </tspan></text><text x="430" y="100" class="t"><tspan textLength="520">6.12.23-android16-5-g6928909e3148-abogki444322847-4k</tspan></text><text y="118" class="t c2"><tspan textLength="350">.mMMm`MMMMMMMMMMMMMMMMMMMM`mMMm.   </tspan></text><text x="350" y="118" class="t c2 b"><tspan textLength="80">Uptime: </tspan></text><text x="430" y="118" class="t"><tspan textLength="250">7 days, 18 hours, 10 mins</tspan></text><text y="136" class="t c2"><tspan textLength="350">:MMMM-MMMMMMMMMMMMMMMMMMMM-MMMM:   </tspan></text><text x="350" y="136" class="t c2 b"><tspan textLength="70">Shell: </tspan></text><text x="420" y="136" class="t"><tspan textLength="100">fish 4.1.2</tspan></text><text y="154" class="t c2"><tspan textLength="350">:MMMM-MMMMMMMMMMMMMMMMMMMM-MMMM:   </tspan></text><text x="350" y="154" class="t c2 b"><tspan textLength="90">Disk(/): </tspan></text><text x="440" y="154" class="t"><tspan textLength="280">845.5 MiB / 845.5 MiB (100%)</tspan></text><text y="172" class="t c2"><tspan textLength="350">:MMMM-MMMMMMMMMMMMMMMMMMMM-MMMM:   </tspan></text><text x="350" y="172" class="t c2 b"><tspan textLength="80">Memory: </tspan></text><text x="430" y="172" class="t"><tspan textLength="190">10.6 GiB / 10.8 GiB</tspan></text><text y="190" class="t c2"><tspan textLength="350">:MMMM-MMMMMMMMMMMMMMMMMMMM-MMMM:   </tspan></text><text x="350" y="190" class="t c2 b"><tspan textLength="130">Temperature: </tspan></text><text x="480" y="190" class="t"><tspan textLength="310">CPU (avg of 23 sensors): 35.5°C</tspan></text><text y="208" class="t c2"><tspan textLength="350">-MMMM-MMMMMMMMMMMMMMMMMMMM-MMMM-   </tspan></text><text x="350" y="208" class="t c2 b"/><text x="480" y="208" class="t"><tspan textLength="310">GPU (avg of 11 sensors): 28.4°C</tspan></text><text y="226" class="t c2"><tspan textLength="350"> +yy+ MMMMMMMMMMMMMMMMMMMM +yy+    </tspan></text><text x="350" y="226" class="t c2 b"/><text x="480" y="226" class="t"><tspan textLength="340">Battery (avg of 3 sensors): 25.7°C</tspan></text><text y="244" class="t c2"><tspan textLength="350">      mMMMMMMMMMMMMMMMMMMm         </tspan></text><text x="350" y="244" class="t c2 b"><tspan textLength="100">Local IP: </tspan></text><text x="450" y="244" class="t"><tspan textLength="130">192.168.0.160</tspan></text><text y="262" class="t c2"><tspan textLength="350">      `/++MMMMh++hMMMM++/`         </tspan></text><text x="350" y="262" class="t c2 b"><tspan textLength="90">Network: </tspan></text><text x="440" y="262" class="t"><tspan textLength="140">lo (127.0.0.1)</tspan></text><text y="280" class="t c2"><tspan textLength="350">          MMMMo  oMMMM             </tspan></text><text x="350" y="280" class="t c2 b"/><text x="440" y="280" class="t"><tspan textLength="260">rmnet_data4 (10.60.75.128)</tspan></text><text y="298" class="t c2"><tspan textLength="350">          MMMMo  oMMMM             </tspan></text><text x="350" y="298" class="t c2 b"/><text x="440" y="298" class="t"><tspan textLength="210">wlan0 (192.168.0.160)</tspan></text><text y="316" class="t c2"><tspan textLength="350">          oNMm-  -mMNs             </tspan></text><text x="350" y="316" class="t c2 b"><tspan textLength="80">Locale: </tspan></text><text x="430" y="316" class="t"><tspan textLength="50">zh-CN</tspan></text><text y="334" class="t c2"/><text y="352" class="t c2"/><path d="M350 344h30v18h-30Z" class="b0"/><text x="350" y="352" class="t"/><path d="M380 344h30v18h-30Z" class="b1"/><text x="380" y="352" class="t"/><path d="M410 344h30v18h-30Z" class="b2"/><text x="410" y="352" class="t"/><path d="M440 344h30v18h-30Z" class="b3"/><text x="440" y="352" class="t"/><path d="M470 344h30v18h-30Z" class="b4"/><text x="470" y="352" class="t"/><path d="M500 344h30v18h-30Z" class="b5"/><text x="500" y="352" class="t"/><path d="M530 344h30v18h-30Z" class="b6"/><text x="530" y="352" class="t"/><path d="M560 344h30v18h-30Z" class="b7"/><text x="560" y="352" class="t"/><text y="370" class="t c2"/><path d="M350 362h30v18h-30Z" class="ba"/><text x="350" y="370" class="t"/><path d="M380 362h30v18h-30Z" class="bb"/><text x="380" y="370" class="t"/><path d="M410 362h30v18h-30Z" class="bc"/><text x="410" y="370" class="t"/><path d="M440 362h30v18h-30Z" class="bd"/><text x="440" y="370" class="t"/><path d="M470 362h30v18h-30Z" class="be"/><text x="470" y="370" class="t"/><path d="M500 362h30v18h-30Z" class="bf"/><text x="500" y="370" class="t"/><path d="M530 362h30v18h-30Z" class="bg"/><text x="530" y="370" class="t"/><path d="M560 362h30v18h-30Z" class="bh"/><text x="560" y="370" class="t"/></svg>