<svg xmlns="http://www.w3.org/2000/svg" width="600" height="270"><style>.t{dominant-baseline:central;font-variant-ligatures:none;white-space:pre;font-family:Consolas,Courier New,Monaco;font-size:16px}.b{font-weight:700}:root{color-scheme:light dark;background:#fff}.ca{fill:#666}.c1{fill:#cd3131}.c7{fill:#e5e5e5}.c2{fill:#0dbc79}.c3{fill:#e5e510}.b0{fill:#000}.b1{fill:#cd3131}.b2{fill:#0dbc79}.b3{fill:#e5e510}.b4{fill:#2472c8}.b5{fill:#bc3fbc}.b6{fill:#11a8cd}.b7{fill:#e5e5e5}.ba{fill:#666}.bb{fill:#f14c4c}.bc{fill:#23d18b}.bd{fill:#f5f543}.be{fill:#3b8eea}.bf{fill:#d670d6}.bg{fill:#29b8db}.bh{fill:#e5e5e5}svg&gt;text{fill:#000}@media (prefers-color-scheme:dark){:root{background:#181818}.ca{fill:#e5e5e5}.c1{fill:#cd3131}.c7{fill:#000}.c2{fill:#0dbc79}.c3{fill:#e5e510}.b0{fill:#e5e5e5}.b1{fill:#cd3131}.b2{fill:#0dbc79}.b3{fill:#e5e510}.b4{fill:#2472c8}.b5{fill:#bc3fbc}.b6{fill:#11a8cd}.b7{fill:#000}.ba{fill:#e5e5e5}.bb{fill:#f14c4c}.bc{fill:#23d18b}.bd{fill:#f5f543}.be{fill:#3b8eea}.bf{fill:#d670d6}.bg{fill:#29b8db}.bh{fill:#666}svg&gt;text{fill:#e5e5e5}}</style><text y="10" class="t ca"><tspan textLength="240">        #####           </tspan></text><text x="240" y="10" class="t c1 b"><tspan textLength="30">ace</tspan></text><text x="270" y="10" class="t"><tspan textLength="10">@</tspan></text><text x="280" y="10" class="t c1 b"><tspan textLength="140">TX-AX6000-FAFC</tspan></text><text y="28" class="t ca"><tspan textLength="240">       #######          </tspan></text><text x="240" y="28" class="t"><tspan textLength="70">-------</tspan></text><text y="46" class="t ca"><tspan textLength="90">       ##</tspan></text><text x="90" y="46" class="t c7"><tspan textLength="10">O</tspan></text><text x="100" y="46" class="t ca"><tspan textLength="10">#</tspan></text><text x="110" y="46" class="t c7"><tspan textLength="10">O</tspan></text><text x="120" y="46" class="t ca"><tspan textLength="120">##          </tspan></text><text x="240" y="46" class="t c2 b"><tspan textLength="40">OS: </tspan></text><text x="280" y="46" class="t"><tspan textLength="130">Linux aarch64</tspan></text><text y="64" class="t ca"><tspan textLength="80">       #</tspan></text><text x="80" y="64" class="t c3"><tspan textLength="50">#####</tspan></text><text x="130" y="64" class="t ca"><tspan textLength="110">#          </tspan></text><text x="240" y="64" class="t c2 b"><tspan textLength="80">Kernel: </tspan></text><text x="320" y="64" class="t"><tspan textLength="70">5.4.225</tspan></text><text y="82" class="t ca"><tspan textLength="70">     ##</tspan></text><text x="70" y="82" class="t c7"><tspan textLength="20">##</tspan></text><text x="90" y="82" class="t c3"><tspan textLength="30">###</tspan></text><text x="120" y="82" class="t c7"><tspan textLength="20">##</tspan></text><text x="140" y="82" class="t ca"><tspan textLength="100">##        </tspan></text><text x="240" y="82" class="t c2 b"><tspan textLength="80">Uptime: </tspan></text><text x="320" y="82" class="t"><tspan textLength="250">53 days, 23 hours, 7 mins</tspan></text><text y="100" class="t ca"><tspan textLength="50">    #</tspan></text><text x="50" y="100" class="t c7"><tspan textLength="100">##########</tspan></text><text x="150" y="100" class="t ca"><tspan textLength="90">##       </tspan></text><text x="240" y="100" class="t c2 b"><tspan textLength="70">Shell: </tspan></text><text x="310" y="100" class="t"><tspan textLength="20">sh</tspan></text><text y="118" class="t ca"><tspan textLength="40">   #</tspan></text><text x="40" y="118" class="t c7"><tspan textLength="120">############</tspan></text><text x="160" y="118" class="t ca"><tspan textLength="80">##      </tspan></text><text x="240" y="118" class="t c2 b"><tspan textLength="90">Disk(/): </tspan></text><text x="330" y="118" class="t"><tspan textLength="260">38.7 MiB / 38.7 MiB (100%)</tspan></text><text y="136" class="t ca"><tspan textLength="40">   #</tspan></text><text x="40" y="136" class="t c7"><tspan textLength="120">############</tspan></text><text x="160" y="136" class="t ca"><tspan textLength="80">###     </tspan></text><text x="240" y="136" class="t c2 b"><tspan textLength="50">CPU: </tspan></text><text x="290" y="136" class="t"><tspan textLength="270">ARMv8 Processor rev 4 (v8l)</tspan></text><text y="154" class="t c3"><tspan textLength="40">  ##</tspan></text><text x="40" y="154" class="t ca"><tspan textLength="10">#</tspan></text><text x="50" y="154" class="t c7"><tspan textLength="110">###########</tspan></text><text x="160" y="154" class="t ca"><tspan textLength="20">##</tspan></text><text x="180" y="154" class="t c3"><tspan textLength="60">#     </tspan></text><text x="240" y="154" class="t c2 b"><tspan textLength="80">Memory: </tspan></text><text x="320" y="154" class="t"><tspan textLength="210">165.2 MiB / 480.5 MiB</tspan></text><text y="172" class="t c3"><tspan textLength="60">######</tspan></text><text x="60" y="172" class="t ca"><tspan textLength="10">#</tspan></text><text x="70" y="172" class="t c7"><tspan textLength="70">#######</tspan></text><text x="140" y="172" class="t ca"><tspan textLength="10">#</tspan></text><text x="150" y="172" class="t c3"><tspan textLength="90">######   </tspan></text><text x="240" y="172" class="t c2 b"><tspan textLength="100">Local IP: </tspan></text><text x="340" y="172" class="t"><tspan textLength="110">192.168.1.2</tspan></text><text y="190" class="t c3"><tspan textLength="70">#######</tspan></text><text x="70" y="190" class="t ca"><tspan textLength="10">#</tspan></text><text x="80" y="190" class="t c7"><tspan textLength="50">#####</tspan></text><text x="130" y="190" class="t ca"><tspan textLength="10">#</tspan></text><text x="140" y="190" class="t c3"><tspan textLength="100">#######   </tspan></text><text y="208" class="t c3"><tspan textLength="70">  #####</tspan></text><text x="70" y="208" class="t ca"><tspan textLength="70">#######</tspan></text><text x="140" y="208" class="t c3"><tspan textLength="100">#####     </tspan></text><path d="M240 200h30v18h-30Z" class="b0"/><text x="240" y="208" class="t"/><path d="M270 200h30v18h-30Z" class="b1"/><text x="270" y="208" class="t"/><path d="M300 200h30v18h-30Z" class="b2"/><text x="300" y="208" class="t"/><path d="M330 200h30v18h-30Z" class="b3"/><text x="330" y="208" class="t"/><path d="M360 200h30v18h-30Z" class="b4"/><text x="360" y="208" class="t"/><path d="M390 200h30v18h-30Z" class="b5"/><text x="390" y="208" class="t"/><path d="M420 200h30v18h-30Z" class="b6"/><text x="420" y="208" class="t"/><path d="M450 200h30v18h-30Z" class="b7"/><text x="450" y="208" class="t"/><text y="226" class="t c3"/><path d="M240 218h30v18h-30Z" class="ba"/><text x="240" y="226" class="t"/><path d="M270 218h30v18h-30Z" class="bb"/><text x="270" y="226" class="t"/><path d="M300 218h30v18h-30Z" class="bc"/><text x="300" y="226" class="t"/><path d="M330 218h30v18h-30Z" class="bd"/><text x="330" y="226" class="t"/><path d="M360 218h30v18h-30Z" class="be"/><text x="360" y="226" class="t"/><path d="M390 218h30v18h-30Z" class="bf"/><text x="390" y="226" class="t"/><path d="M420 218h30v18h-30Z" class="bg"/><text x="420" y="226" class="t"/><path d="M450 218h30v18h-30Z" class="bh"/><text x="450" y="226" class="t"/></svg>