<svg xmlns="http://www.w3.org/2000/svg" width="700" height="342"><style>.t{dominant-baseline:central;font-variant-ligatures:none;white-space:pre;font-family:Consolas,Courier New,Monaco;font-size:16px}.b{font-weight:700}:root{color-scheme:light dark;background:#fff}.c2{fill:#0dbc79}.c1{fill:#cd3131}.c3{fill:#e5e510}.c5{fill:#bc3fbc}.c4{fill:#2472c8}.b0{fill:#000}.b1{fill:#cd3131}.b2{fill:#0dbc79}.b3{fill:#e5e510}.b4{fill:#2472c8}.b5{fill:#bc3fbc}.b6{fill:#11a8cd}.b7{fill:#e5e5e5}.ba{fill:#666}.bb{fill:#f14c4c}.bc{fill:#23d18b}.bd{fill:#f5f543}.be{fill:#3b8eea}.bf{fill:#d670d6}.bg{fill:#29b8db}.bh{fill:#e5e5e5}svg&gt;text{fill:#000}@media (prefers-color-scheme:dark){:root{background:#181818}.c2{fill:#0dbc79}.c1{fill:#cd3131}.c3{fill:#e5e510}.c5{fill:#bc3fbc}.c4{fill:#2472c8}.b0{fill:#e5e5e5}.b1{fill:#cd3131}.b2{fill:#0dbc79}.b3{fill:#e5e510}.b4{fill:#2472c8}.b5{fill:#bc3fbc}.b6{fill:#11a8cd}.b7{fill:#000}.ba{fill:#e5e5e5}.bb{fill:#f14c4c}.bc{fill:#23d18b}.bd{fill:#f5f543}.be{fill:#3b8eea}.bf{fill:#d670d6}.bg{fill:#29b8db}.bh{fill:#666}svg&gt;text{fill:#e5e5e5}}</style><text y="10" class="t c2"><tspan textLength="330">                    c.'          </tspan></text><text x="330" y="10" class="t c1 b"><tspan textLength="60">runner</tspan></text><text x="390" y="10" class="t"><tspan textLength="10">@</tspan></text><text x="400" y="10" class="t c1 b"><tspan textLength="230">Mac-1762506039392.local</tspan></text><text y="28" class="t c2"><tspan textLength="330">                 ,xNMM.          </tspan></text><text x="330" y="28" class="t"><tspan textLength="70">-------</tspan></text><text y="46" class="t c2"><tspan textLength="330">               .OMMMMo           </tspan></text><text x="330" y="46" class="t c2 b"><tspan textLength="40">OS: </tspan></text><text x="370" y="46" class="t"><tspan textLength="120">Darwin arm64</tspan></text><text y="64" class="t c2"><tspan textLength="330">               lMMM"             </tspan></text><text x="330" y="64" class="t c2 b"><tspan textLength="80">Kernel: </tspan></text><text x="410" y="64" class="t"><tspan textLength="60">24.6.0</tspan></text><text y="82" class="t c2"><tspan textLength="330">     .;loddo:.  .olloddol;.      </tspan></text><text x="330" y="82" class="t c2 b"><tspan textLength="80">Uptime: </tspan></text><text x="410" y="82" class="t"><tspan textLength="140">3 mins 40 secs</tspan></text><text y="100" class="t c2"><tspan textLength="330">   cKMMMMMMMMMMNWMMMMMMMMMM0:    </tspan></text><text x="330" y="100" class="t c2 b"><tspan textLength="90">Disk(/): </tspan></text><text x="420" y="100" class="t"><tspan textLength="270">242.3 GiB / 319.5 GiB (76%)</tspan></text><text y="118" class="t c3"><tspan textLength="330"> .KMMMMMMMMMMMMMMMMMMMMMMMWd.    </tspan></text><text x="330" y="118" class="t c2 b"><tspan textLength="100">Local IP: </tspan></text><text x="430" y="118" class="t"><tspan textLength="130">192.168.64.24</tspan></text><text y="136" class="t c3"><tspan textLength="330"> XMMMMMMMMMMMMMMMMMMMMMMMX.      </tspan></text><text x="330" y="136" class="t c2 b"><tspan textLength="90">Network: </tspan></text><text x="420" y="136" class="t"><tspan textLength="150">lo0 (127.0.0.1)</tspan></text><text y="154" class="t c1"><tspan textLength="330">;MMMMMMMMMMMMMMMMMMMMMMMM:       </tspan></text><text x="330" y="154" class="t c2 b"/><text x="420" y="154" class="t"><tspan textLength="190">en0 (192.168.64.24)</tspan></text><text y="172" class="t c1"><tspan textLength="330">:MMMMMMMMMMMMMMMMMMMMMMMM:       </tspan></text><text x="330" y="172" class="t c2 b"><tspan textLength="80">Locale: </tspan></text><text x="410" y="172" class="t"><tspan textLength="110">en_US.UTF-8</tspan></text><text y="190" class="t c1"><tspan textLength="330">.MMMMMMMMMMMMMMMMMMMMMMMMX.      </tspan></text><text y="208" class="t c1"><tspan textLength="330"> kMMMMMMMMMMMMMMMMMMMMMMMMWd.    </tspan></text><path d="M330 200h30v18h-30Z" class="b0"/><text x="330" y="208" class="t"/><path d="M360 200h30v18h-30Z" class="b1"/><text x="360" y="208" class="t"/><path d="M390 200h30v18h-30Z" class="b2"/><text x="390" y="208" class="t"/><path d="M420 200h30v18h-30Z" class="b3"/><text x="420" y="208" class="t"/><path d="M450 200h30v18h-30Z" class="b4"/><text x="450" y="208" class="t"/><path d="M480 200h30v18h-30Z" class="b5"/><text x="480" y="208" class="t"/><path d="M510 200h30v18h-30Z" class="b6"/><text x="510" y="208" class="t"/><path d="M540 200h30v18h-30Z" class="b7"/><text x="540" y="208" class="t"/><text y="226" class="t c1"/><text x="10" y="226" class="t c5"><tspan textLength="320">'XMMMMMMMMMMMMMMMMMMMMMMMMMMk   </tspan></text><path d="M330 218h30v18h-30Z" class="ba"/><text x="330" y="226" class="t"/><path d="M360 218h30v18h-30Z" class="bb"/><text x="360" y="226" class="t"/><path d="M390 218h30v18h-30Z" class="bc"/><text x="390" y="226" class="t"/><path d="M420 218h30v18h-30Z" class="bd"/><text x="420" y="226" class="t"/><path d="M450 218h30v18h-30Z" class="be"/><text x="450" y="226" class="t"/><path d="M480 218h30v18h-30Z" class="bf"/><text x="480" y="226" class="t"/><path d="M510 218h30v18h-30Z" class="bg"/><text x="510" y="226" class="t"/><path d="M540 218h30v18h-30Z" class="bh"/><text x="540" y="226" class="t"/><text y="244" class="t c5"><tspan textLength="330">  'XMMMMMMMMMMMMMMMMMMMMMMMMK.   </tspan></text><text y="262" class="t c5"/><text x="40" y="262" class="t c4"><tspan textLength="290">kMMMMMMMMMMMMMMMMMMMMMMd     </tspan></text><text y="280" class="t c4"><tspan textLength="330">     ;KMMMMMMMWXXWMMMMMMMk.      </tspan></text><text y="298" class="t c4"><tspan textLength="330">       "cooc*"    "*coo'"        </tspan></text></svg>