<svg xmlns="http://www.w3.org/2000/svg" width="780" height="324"><style>.t{dominant-baseline:central;font-variant-ligatures:none;white-space:pre;font-family:Consolas,Courier New,Monaco;font-size:16px}.b{font-weight:700}:root{color-scheme:light dark;background:#fff}.c4{fill:#2472c8}.c1{fill:#cd3131}.c2{fill:#0dbc79}.b0{fill:#000}.b1{fill:#cd3131}.b2{fill:#0dbc79}.b3{fill:#e5e510}.b4{fill:#2472c8}.b5{fill:#bc3fbc}.b6{fill:#11a8cd}.b7{fill:#e5e5e5}.ba{fill:#666}.bb{fill:#f14c4c}.bc{fill:#23d18b}.bd{fill:#f5f543}.be{fill:#3b8eea}.bf{fill:#d670d6}.bg{fill:#29b8db}.bh{fill:#e5e5e5}svg&gt;text{fill:#000}@media (prefers-color-scheme:dark){:root{background:#181818}.c4{fill:#2472c8}.c1{fill:#cd3131}.c2{fill:#0dbc79}.b0{fill:#e5e5e5}.b1{fill:#cd3131}.b2{fill:#0dbc79}.b3{fill:#e5e510}.b4{fill:#2472c8}.b5{fill:#bc3fbc}.b6{fill:#11a8cd}.b7{fill:#000}.ba{fill:#e5e5e5}.bb{fill:#f14c4c}.bc{fill:#23d18b}.bd{fill:#f5f543}.be{fill:#3b8eea}.bf{fill:#d670d6}.bg{fill:#29b8db}.bh{fill:#666}svg&gt;text{fill:#e5e5e5}}</style><text y="10" class="t c4"><tspan textLength="310"> _______                       </tspan></text><text x="310" y="10" class="t c1 b"><tspan textLength="40">root</tspan></text><text x="350" y="10" class="t"><tspan textLength="10">@</tspan></text><text x="360" y="10" class="t c1 b"><tspan textLength="70">OpenWrt</tspan></text><text y="28" class="t c4"><tspan textLength="310">|       |.-----.-----.-----.   </tspan></text><text x="310" y="28" class="t"><tspan textLength="70">-------</tspan></text><text y="46" class="t c4"><tspan textLength="310">|   -   ||  _  |  -__|     |   </tspan></text><text x="310" y="46" class="t c2 b"><tspan textLength="40">OS: </tspan></text><text x="350" y="46" class="t"><tspan textLength="220">OpenWrt 24.10.4 x86_64</tspan></text><text y="64" class="t c4"><tspan textLength="310">|_______||   __|_____|__|__|   </tspan></text><text x="310" y="64" class="t c2 b"><tspan textLength="60">Host: </tspan></text><text x="370" y="64" class="t"><tspan textLength="140">VirtualBox 1.2</tspan></text><text y="82" class="t c4"><tspan textLength="310">         |__|                  </tspan></text><text x="310" y="82" class="t c2 b"><tspan textLength="80">Kernel: </tspan></text><text x="390" y="82" class="t"><tspan textLength="70">6.6.110</tspan></text><text y="100" class="t c4"><tspan textLength="310"> ________        __            </tspan></text><text x="310" y="100" class="t c2 b"><tspan textLength="80">Uptime: </tspan></text><text x="390" y="100" class="t"><tspan textLength="250">7 hours, 36 mins, 55 secs</tspan></text><text y="118" class="t c4"><tspan textLength="310">|  |  |  |.----.|  |_          </tspan></text><text x="310" y="118" class="t c2 b"><tspan textLength="100">Packages: </tspan></text><text x="410" y="118" class="t"><tspan textLength="100">195 (opkg)</tspan></text><text y="136" class="t c4"><tspan textLength="310">|  |  |  ||   _||   _|         </tspan></text><text x="310" y="136" class="t c2 b"><tspan textLength="70">Shell: </tspan></text><text x="380" y="136" class="t"><tspan textLength="100">fish 4.1.2</tspan></text><text y="154" class="t c4"><tspan textLength="310">|________||__|  |____|         </tspan></text><text x="310" y="154" class="t c2 b"><tspan textLength="90">Disk(/): </tspan></text><text x="400" y="154" class="t"><tspan textLength="270">127.7 MiB / 352.3 MiB (36%)</tspan></text><text y="172" class="t c4"/><text x="310" y="172" class="t c2 b"><tspan textLength="50">CPU: </tspan></text><text x="360" y="172" class="t"><tspan textLength="410">Intel(R) Core(TM) i7-14700KF (4) 3.42 GHz</tspan></text><text y="190" class="t c4"/><text x="310" y="190" class="t c2 b"><tspan textLength="80">Memory: </tspan></text><text x="390" y="190" class="t"><tspan textLength="210">400.7 MiB / 984.8 MiB</tspan></text><text y="208" class="t c4"/><text x="310" y="208" class="t c2 b"><tspan textLength="100">Local IP: </tspan></text><text x="410" y="208" class="t"><tspan textLength="130">192.168.0.231</tspan></text><text y="226" class="t c4"/><text x="310" y="226" class="t c2 b"><tspan textLength="80">Locale: </tspan></text><text x="390" y="226" class="t"><tspan textLength="110">en_US.UTF-8</tspan></text><text y="244" class="t c4"/><text y="262" class="t c4"/><path d="M310 254h30v18h-30Z" class="b0"/><text x="310" y="262" class="t"/><path d="M340 254h30v18h-30Z" class="b1"/><text x="340" y="262" class="t"/><path d="M370 254h30v18h-30Z" class="b2"/><text x="370" y="262" class="t"/><path d="M400 254h30v18h-30Z" class="b3"/><text x="400" y="262" class="t"/><path d="M430 254h30v18h-30Z" class="b4"/><text x="430" y="262" class="t"/><path d="M460 254h30v18h-30Z" class="b5"/><text x="460" y="262" class="t"/><path d="M490 254h30v18h-30Z" class="b6"/><text x="490" y="262" class="t"/><path d="M520 254h30v18h-30Z" class="b7"/><text x="520" y="262" class="t"/><text y="280" class="t c4"/><path d="M310 272h30v18h-30Z" class="ba"/><text x="310" y="280" class="t"/><path d="M340 272h30v18h-30Z" class="bb"/><text x="340" y="280" class="t"/><path d="M370 272h30v18h-30Z" class="bc"/><text x="370" y="280" class="t"/><path d="M400 272h30v18h-30Z" class="bd"/><text x="400" y="280" class="t"/><path d="M430 272h30v18h-30Z" class="be"/><text x="430" y="280" class="t"/><path d="M460 272h30v18h-30Z" class="bf"/><text x="460" y="280" class="t"/><path d="M490 272h30v18h-30Z" class="bg"/><text x="490" y="280" class="t"/><path d="M520 272h30v18h-30Z" class="bh"/><text x="520" y="280" class="t"/></svg>