<svg xmlns="http://www.w3.org/2000/svg" width="900" height="396"><style>.t{dominant-baseline:central;font-variant-ligatures:none;white-space:pre;font-family:Consolas,Courier New,Monaco;font-size:16px}.b{font-weight:700}:root{color-scheme:light dark;background:#fff}.c1{fill:#cd3131}.c2{fill:#0dbc79}.c7{fill:#e5e5e5}.b0{fill:#000}.b1{fill:#cd3131}.b2{fill:#0dbc79}.b3{fill:#e5e510}.b4{fill:#2472c8}.b5{fill:#bc3fbc}.b6{fill:#11a8cd}.b7{fill:#e5e5e5}.ba{fill:#666}.bb{fill:#f14c4c}.bc{fill:#23d18b}.bd{fill:#f5f543}.be{fill:#3b8eea}.bf{fill:#d670d6}.bg{fill:#29b8db}.bh{fill:#e5e5e5}svg&gt;text{fill:#000}@media (prefers-color-scheme:dark){:root{background:#181818}.c1{fill:#cd3131}.c2{fill:#0dbc79}.c7{fill:#000}.b0{fill:#e5e5e5}.b1{fill:#cd3131}.b2{fill:#0dbc79}.b3{fill:#e5e510}.b4{fill:#2472c8}.b5{fill:#bc3fbc}.b6{fill:#11a8cd}.b7{fill:#000}.ba{fill:#e5e5e5}.bb{fill:#f14c4c}.bc{fill:#23d18b}.bd{fill:#f5f543}.be{fill:#3b8eea}.bf{fill:#d670d6}.bg{fill:#29b8db}.bh{fill:#666}svg&gt;text{fill:#e5e5e5}}</style><text y="10" class="t c1"><tspan textLength="430">            .-/+oossssoo+\-.               </tspan></text><text x="430" y="10" class="t c1 b"><tspan textLength="40">root</tspan></text><text x="470" y="10" class="t"><tspan textLength="10">@</tspan></text><text x="480" y="10" class="t c1 b"><tspan textLength="30">u24</tspan></text><text y="28" class="t c1"><tspan textLength="430">        ´:+ssssssssssssssssss+:`           </tspan></text><text x="430" y="28" class="t"><tspan textLength="70">-------</tspan></text><text y="46" class="t c1"><tspan textLength="430">      -+ssssssssssssssssssyyssss+-         </tspan></text><text x="430" y="46" class="t c2 b"><tspan textLength="40">OS: </tspan></text><text x="470" y="46" class="t"><tspan textLength="250">Ubuntu 24.04.3 LTS x86_64</tspan></text><text y="64" class="t c1"><tspan textLength="240">    .ossssssssssssssssss</tspan></text><text x="240" y="64" class="t c7"><tspan textLength="60">dMMMNy</tspan></text><text x="300" y="64" class="t c1"><tspan textLength="130">sssso.       </tspan></text><text x="430" y="64" class="t c2 b"><tspan textLength="60">Host: </tspan></text><text x="490" y="64" class="t"><tspan textLength="140">VirtualBox 1.2</tspan></text><text y="82" class="t c1"><tspan textLength="150">   /sssssssssss</tspan></text><text x="150" y="82" class="t c7"><tspan textLength="150">hdmmNNmmyNMMMMh</tspan></text><text x="300" y="82" class="t c1"><tspan textLength="130">ssssss\      </tspan></text><text x="430" y="82" class="t c2 b"><tspan textLength="80">Kernel: </tspan></text><text x="510" y="82" class="t"><tspan textLength="170">6.14.0-34-generic</tspan></text><text y="100" class="t c1"><tspan textLength="120">  +sssssssss</tspan></text><text x="120" y="100" class="t c7"><tspan textLength="20">hm</tspan></text><text x="140" y="100" class="t c1"><tspan textLength="20">yd</tspan></text><text x="160" y="100" class="t c7"><tspan textLength="130">MMMMMMMNddddy</tspan></text><text x="290" y="100" class="t c1"><tspan textLength="140">ssssssss+     </tspan></text><text x="430" y="100" class="t c2 b"><tspan textLength="80">Uptime: </tspan></text><text x="510" y="100" class="t"><tspan textLength="250">2 hours, 47 mins, 49 secs</tspan></text><text y="118" class="t c1"><tspan textLength="100"> /ssssssss</tspan></text><text x="100" y="118" class="t c7"><tspan textLength="50">hNMMM</tspan></text><text x="150" y="118" class="t c1"><tspan textLength="20">yh</tspan></text><text x="170" y="118" class="t c7"><tspan textLength="130">hyyyyhmNMMMNh</tspan></text><text x="300" y="118" class="t c1"><tspan textLength="130">ssssssss\    </tspan></text><text x="430" y="118" class="t c2 b"><tspan textLength="100">Packages: </tspan></text><text x="530" y="118" class="t"><tspan textLength="220">1806 (dpkg), 16 (snap)</tspan></text><text y="136" class="t c1"><tspan textLength="90">.ssssssss</tspan></text><text x="90" y="136" class="t c7"><tspan textLength="60">dMMMNh</tspan></text><text x="150" y="136" class="t c1"><tspan textLength="100">ssssssssss</tspan></text><text x="250" y="136" class="t c7"><tspan textLength="60">hNMMMd</tspan></text><text x="310" y="136" class="t c1"><tspan textLength="120">ssssssss.   </tspan></text><text x="430" y="136" class="t c2 b"><tspan textLength="70">Shell: </tspan></text><text x="500" y="136" class="t"><tspan textLength="100">fish 4.0.8</tspan></text><text y="154" class="t c1"><tspan textLength="50">+ssss</tspan></text><text x="50" y="154" class="t c7"><tspan textLength="90">hhhyNMMNy</tspan></text><text x="140" y="154" class="t c1"><tspan textLength="120">ssssssssssss</tspan></text><text x="260" y="154" class="t c7"><tspan textLength="60">yNMMMy</tspan></text><text x="320" y="154" class="t c1"><tspan textLength="110">sssssss+   </tspan></text><text x="430" y="154" class="t c2 b"><tspan textLength="100">Terminal: </tspan></text><text x="530" y="154" class="t"><tspan textLength="40">node</tspan></text><text y="172" class="t c1"><tspan textLength="30">oss</tspan></text><text x="30" y="172" class="t c7"><tspan textLength="100">yNMMMNyMMh</tspan></text><text x="130" y="172" class="t c1"><tspan textLength="140">ssssssssssssss</tspan></text><text x="270" y="172" class="t c7"><tspan textLength="50">hmmmh</tspan></text><text x="320" y="172" class="t c1"><tspan textLength="110">ssssssso   </tspan></text><text x="430" y="172" class="t c2 b"><tspan textLength="90">Disk(/): </tspan></text><text x="520" y="172" class="t"><tspan textLength="260">73.2 GiB / 125.4 GiB (58%)</tspan></text><text y="190" class="t c1"><tspan textLength="30">oss</tspan></text><text x="30" y="190" class="t c7"><tspan textLength="100">yNMMMNyMMh</tspan></text><text x="130" y="190" class="t c1"><tspan textLength="300">sssssssssssssshmmmhssssssso   </tspan></text><text x="430" y="190" class="t c2 b"><tspan textLength="50">CPU: </tspan></text><text x="480" y="190" class="t"><tspan textLength="410">Intel(R) Core(TM) i7-14700KF (8) 3.42 GHz</tspan></text><text y="208" class="t c1"><tspan textLength="50">+ssss</tspan></text><text x="50" y="208" class="t c7"><tspan textLength="90">hhhyNMMNy</tspan></text><text x="140" y="208" class="t c1"><tspan textLength="120">ssssssssssss</tspan></text><text x="260" y="208" class="t c7"><tspan textLength="60">yNMMMy</tspan></text><text x="320" y="208" class="t c1"><tspan textLength="110">sssssss+   </tspan></text><text x="430" y="208" class="t c2 b"><tspan textLength="50">GPU: </tspan></text><text x="480" y="208" class="t"><tspan textLength="260">VMware @ (SVGA II Adapter)</tspan></text><text y="226" class="t c1"><tspan textLength="90">.ssssssss</tspan></text><text x="90" y="226" class="t c7"><tspan textLength="60">dMMMNh</tspan></text><text x="150" y="226" class="t c1"><tspan textLength="100">ssssssssss</tspan></text><text x="250" y="226" class="t c7"><tspan textLength="60">hNMMMd</tspan></text><text x="310" y="226" class="t c1"><tspan textLength="120">ssssssss.   </tspan></text><text x="430" y="226" class="t c2 b"><tspan textLength="80">Memory: </tspan></text><text x="510" y="226" class="t"><tspan textLength="170">6.8 GiB / 7.8 GiB</tspan></text><text y="244" class="t c1"><tspan textLength="100"> \ssssssss</tspan></text><text x="100" y="244" class="t c7"><tspan textLength="50">hNMMM</tspan></text><text x="150" y="244" class="t c1"><tspan textLength="20">yh</tspan></text><text x="170" y="244" class="t c7"><tspan textLength="130">hyyyyhdNMMMNh</tspan></text><text x="300" y="244" class="t c1"><tspan textLength="130">ssssssss/    </tspan></text><text x="430" y="244" class="t c2 b"><tspan textLength="100">Local IP: </tspan></text><text x="530" y="244" class="t"><tspan textLength="110">192.168.0.3</tspan></text><text y="262" class="t c1"><tspan textLength="120">  +sssssssss</tspan></text><text x="120" y="262" class="t c7"><tspan textLength="20">dm</tspan></text><text x="140" y="262" class="t c1"><tspan textLength="20">yd</tspan></text><text x="160" y="262" class="t c7"><tspan textLength="130">MMMMMMMMddddy</tspan></text><text x="290" y="262" class="t c1"><tspan textLength="140">ssssssss+     </tspan></text><text x="430" y="262" class="t c2 b"><tspan textLength="90">Network: </tspan></text><text x="520" y="262" class="t"><tspan textLength="200">enp0s3 (192.168.0.3)</tspan></text><text y="280" class="t c1"><tspan textLength="150">   \sssssssssss</tspan></text><text x="150" y="280" class="t c7"><tspan textLength="150">hdmNNNNmyNMMMMh</tspan></text><text x="300" y="280" class="t c1"><tspan textLength="130">ssssss/      </tspan></text><text x="430" y="280" class="t c2 b"/><text x="520" y="280" class="t"><tspan textLength="230">enp0s8 (192.168.56.103)</tspan></text><text y="298" class="t c1"><tspan textLength="240">    .ossssssssssssssssss</tspan></text><text x="240" y="298" class="t c7"><tspan textLength="60">dMMMNy</tspan></text><text x="300" y="298" class="t c1"><tspan textLength="130">sssso.       </tspan></text><text x="430" y="298" class="t c2 b"><tspan textLength="80">Locale: </tspan></text><text x="510" y="298" class="t"><tspan textLength="110">en_US.UTF-8</tspan></text><text y="316" class="t c1"><tspan textLength="250">      -+sssssssssssssssss</tspan></text><text x="250" y="316" class="t c7"><tspan textLength="30">yyy</tspan></text><text x="280" y="316" class="t c1"><tspan textLength="150">ssss+-         </tspan></text><text y="334" class="t c1"><tspan textLength="430">        `:+ssssssssssssssssss+:`           </tspan></text><path d="M430 326h30v18h-30Z" class="b0"/><text x="430" y="334" class="t"/><path d="M460 326h30v18h-30Z" class="b1"/><text x="460" y="334" class="t"/><path d="M490 326h30v18h-30Z" class="b2"/><text x="490" y="334" class="t"/><path d="M520 326h30v18h-30Z" class="b3"/><text x="520" y="334" class="t"/><path d="M550 326h30v18h-30Z" class="b4"/><text x="550" y="334" class="t"/><path d="M580 326h30v18h-30Z" class="b5"/><text x="580" y="334" class="t"/><path d="M610 326h30v18h-30Z" class="b6"/><text x="610" y="334" class="t"/><path d="M640 326h30v18h-30Z" class="b7"/><text x="640" y="334" class="t"/><text y="352" class="t c1"><tspan textLength="430">            .-\+oossssoo+/-.               </tspan></text><path d="M430 344h30v18h-30Z" class="ba"/><text x="430" y="352" class="t"/><path d="M460 344h30v18h-30Z" class="bb"/><text x="460" y="352" class="t"/><path d="M490 344h30v18h-30Z" class="bc"/><text x="490" y="352" class="t"/><path d="M520 344h30v18h-30Z" class="bd"/><text x="520" y="352" class="t"/><path d="M550 344h30v18h-30Z" class="be"/><text x="550" y="352" class="t"/><path d="M580 344h30v18h-30Z" class="bf"/><text x="580" y="352" class="t"/><path d="M610 344h30v18h-30Z" class="bg"/><text x="610" y="352" class="t"/><path d="M640 344h30v18h-30Z" class="bh"/><text x="640" y="352" class="t"/></svg>