<svg xmlns="http://www.w3.org/2000/svg" width="950" height="468"><style>.t{dominant-baseline:central;font-variant-ligatures:none;white-space:pre;font-family:Consolas,Courier New,Monaco;font-size:16px}.b{font-weight:700}:root{color-scheme:light dark;background:#fff}.c6{fill:#11a8cd}.c1{fill:#cd3131}.c2{fill:#0dbc79}svg&gt;text{fill:#000}@media (prefers-color-scheme:dark){:root{background:#181818}.c6{fill:#11a8cd}.c1{fill:#cd3131}.c2{fill:#0dbc79}svg&gt;text{fill:#e5e5e5}}</style><text y="10" class="t c6"/><text x="370" y="10" class="t c1 b"><tspan textLength="30">ace</tspan></text><text x="400" y="10" class="t"><tspan textLength="10">@</tspan></text><text x="410" y="10" class="t c1 b"><tspan textLength="30">WIN</tspan></text><text y="28" class="t c6"><tspan textLength="370">################  ################   </tspan></text><text x="370" y="28" class="t"><tspan textLength="70">-------</tspan></text><text y="46" class="t c6"><tspan textLength="370">################  ################   </tspan></text><text x="370" y="46" class="t c2 b"><tspan textLength="40">OS: </tspan></text><text x="410" y="46" class="t"><tspan textLength="210">Windows 11 专业版 x86_64</tspan></text><text y="64" class="t c6"><tspan textLength="370">################  ################   </tspan></text><text x="370" y="64" class="t c2 b"><tspan textLength="60">Host: </tspan></text><text x="430" y="64" class="t"><tspan textLength="40">ASUS</tspan></text><text y="82" class="t c6"><tspan textLength="370">################  ################   </tspan></text><text x="370" y="82" class="t c2 b"><tspan textLength="80">Kernel: </tspan></text><text x="450" y="82" class="t"><tspan textLength="170">10.0.26100 (24H2)</tspan></text><text y="100" class="t c6"><tspan textLength="370">################  ################   </tspan></text><text x="370" y="100" class="t c2 b"><tspan textLength="80">Uptime: </tspan></text><text x="450" y="100" class="t"><tspan textLength="250">5 days, 22 hours, 18 mins</tspan></text><text y="118" class="t c6"><tspan textLength="370">################  ################   </tspan></text><text x="370" y="118" class="t c2 b"><tspan textLength="100">Packages: </tspan></text><text x="470" y="118" class="t"><tspan textLength="230">256 (pacman), 2 (scoop)</tspan></text><text y="136" class="t c6"><tspan textLength="370">################  ################   </tspan></text><text x="370" y="136" class="t c2 b"><tspan textLength="70">Shell: </tspan></text><text x="440" y="136" class="t"><tspan textLength="220">fish 4.0.1-Berrysoft-3</tspan></text><text y="154" class="t c6"/><text x="370" y="154" class="t c2 b"><tspan textLength="230">Display(LG ULTRAGEAR): </tspan></text><text x="600" y="154" class="t"><tspan textLength="340">3840x2160 @ 144Hz (as 5760x3240) *</tspan></text><text y="172" class="t c6"><tspan textLength="370">################  ################   </tspan></text><text x="370" y="172" class="t c2 b"><tspan textLength="230">Display(LG ULTRAGEAR): </tspan></text><text x="600" y="172" class="t"><tspan textLength="320">3840x2160 @ 144Hz (as 5760x3240)</tspan></text><text y="190" class="t c6"><tspan textLength="370">################  ################   </tspan></text><text x="370" y="190" class="t c2 b"><tspan textLength="40">DE: </tspan></text><text x="410" y="190" class="t"><tspan textLength="60">Fluent</tspan></text><text y="208" class="t c6"><tspan textLength="370">################  ################   </tspan></text><text x="370" y="208" class="t c2 b"><tspan textLength="40">WM: </tspan></text><text x="410" y="208" class="t"><tspan textLength="80">Explorer</tspan></text><text y="226" class="t c6"><tspan textLength="370">################  ################   </tspan></text><text x="370" y="226" class="t c2 b"><tspan textLength="100">WM Theme: </tspan></text><text x="470" y="226" class="t"><tspan textLength="40">dark</tspan></text><text y="244" class="t c6"><tspan textLength="370">################  ################   </tspan></text><text x="370" y="244" class="t c2 b"><tspan textLength="100">Terminal: </tspan></text><text x="470" y="244" class="t"><tspan textLength="160">Windows Terminal</tspan></text><text y="262" class="t c6"><tspan textLength="370">################  ################   </tspan></text><text x="370" y="262" class="t c2 b"><tspan textLength="90">Disk(C): </tspan></text><text x="460" y="262" class="t"><tspan textLength="270">699.5 GiB / 930.7 GiB (75%)</tspan></text><text y="280" class="t c6"><tspan textLength="370">################  ################   </tspan></text><text x="370" y="280" class="t c2 b"><tspan textLength="90">Disk(D): </tspan></text><text x="460" y="280" class="t"><tspan textLength="230">1.3 TiB / 1.8 TiB (71%)</tspan></text><text y="298" class="t c6"/><text x="370" y="298" class="t c2 b"><tspan textLength="50">CPU: </tspan></text><text x="420" y="298" class="t"><tspan textLength="420">Intel(R) Core(TM) i7-14700KF (28) 3.40 GHz</tspan></text><text y="316" class="t c6"/><text x="370" y="316" class="t c2 b"><tspan textLength="50">GPU: </tspan></text><text x="420" y="316" class="t"><tspan textLength="480">NVIDIA GeForce RTX 4080 (4 GiB) @ (32.0.15.7652)</tspan></text><text y="334" class="t c6"/><text x="370" y="334" class="t c2 b"><tspan textLength="80">Memory: </tspan></text><text x="450" y="334" class="t"><tspan textLength="250">11.3 GiB / 31.8 GiB (35%)</tspan></text><text y="352" class="t c6"/><text x="370" y="352" class="t c2 b"><tspan textLength="100">Local IP: </tspan></text><text x="470" y="352" class="t"><tspan textLength="130">192.168.0.111</tspan></text><text y="370" class="t c6"/><text x="370" y="370" class="t c2 b"><tspan textLength="80">Locale: </tspan></text><text x="450" y="370" class="t"><tspan textLength="50">zh-CN</tspan></text><text y="388" class="t c6"/><text y="406" class="t c6"/><path d="M370 398h30v18h-30Z" style="fill:#000"/><text x="370" y="406" class="t"/><path d="M400 398h30v18h-30Z" style="fill:#cd3131"/><text x="400" y="406" class="t"/><path d="M430 398h30v18h-30Z" style="fill:#0dbc79"/><text x="430" y="406" class="t"/><path d="M460 398h30v18h-30Z" style="fill:#e5e510"/><text x="460" y="406" class="t"/><path d="M490 398h30v18h-30Z" style="fill:#2472c8"/><text x="490" y="406" class="t"/><path d="M520 398h30v18h-30Z" style="fill:#bc3fbc"/><text x="520" y="406" class="t"/><path d="M550 398h30v18h-30Z" style="fill:#11a8cd"/><text x="550" y="406" class="t"/><path d="M580 398h30v18h-30Z" style="fill:#e5e5e5"/><text x="580" y="406" class="t"/><text y="424" class="t c6"/><path d="M370 416h30v18h-30Z" style="fill:#666"/><text x="370" y="424" class="t"/><path d="M400 416h30v18h-30Z" style="fill:#f14c4c"/><text x="400" y="424" class="t"/><path d="M430 416h30v18h-30Z" style="fill:#23d18b"/><text x="430" y="424" class="t"/><path d="M460 416h30v18h-30Z" style="fill:#f5f543"/><text x="460" y="424" class="t"/><path d="M490 416h30v18h-30Z" style="fill:#3b8eea"/><text x="490" y="424" class="t"/><path d="M520 416h30v18h-30Z" style="fill:#d670d6"/><text x="520" y="424" class="t"/><path d="M550 416h30v18h-30Z" style="fill:#29b8db"/><text x="550" y="424" class="t"/><path d="M580 416h30v18h-30Z" style="fill:#e5e5e5"/><text x="580" y="424" class="t"/></svg>